<?xml version="1.0" standalone="no"?>
<!DOCTYPE svg PUBLIC "-//W3C//DTD SVG 20010904//EN"
 "http://www.w3.org/TR/2001/REC-SVG-20010904/DTD/svg10.dtd">
<svg version="1.0" xmlns="http://www.w3.org/2000/svg"
 width="512.000000pt" height="512.000000pt" viewBox="0 0 512.000000 512.000000"
 preserveAspectRatio="xMidYMid meet">

<g transform="translate(0.000000,512.000000) scale(0.100000,-0.100000)"
fill="#000000" stroke="none">
<path d="M1777 3746 c-64 -17 -116 -61 -147 -122 l-25 -49 0 -1015 0 -1015 25
-50 c32 -63 93 -110 162 -124 37 -8 511 -11 1603 -9 l1550 3 41 22 c53 28 107
91 122 142 17 55 17 2007 0 2062 -15 51 -69 114 -122 142 l-41 22 -1560 2
c-1250 1 -1570 -1 -1608 -11z m3162 -160 c12 -11 21 -23 21 -27 0 -13 -1321
-1031 -1378 -1062 -148 -80 -328 -75 -468 15 -29 18 -344 260 -702 537 -466
360 -649 508 -645 518 17 43 -12 42 1609 40 1501 -2 1542 -3 1563 -21z m-2549
-711 c643 -498 698 -537 826 -569 76 -20 221 -20 291 -2 67 18 151 57 209 97
26 17 316 240 645 495 329 255 601 464 604 464 3 0 5 -360 5 -800 0 -440 -2
-800 -5 -800 -3 0 -195 146 -426 325 -249 194 -431 328 -448 331 -38 8 -81
-31 -81 -74 0 -39 -3 -36 513 -435 240 -187 437 -342 437 -346 0 -4 -9 -16
-21 -27 -21 -18 -63 -19 -1553 -22 -1076 -2 -1542 0 -1568 8 -88 25 -97 16
416 413 261 201 475 374 478 384 13 51 -38 111 -84 100 -13 -4 -213 -153 -443
-331 -231 -179 -423 -326 -427 -326 -5 0 -8 360 -8 800 0 440 3 800 8 800 4 0
288 -219 632 -485z"/>
<path d="M1013 3190 c-32 -13 -56 -54 -48 -82 18 -57 22 -58 232 -58 180 0
194 1 213 20 38 38 22 100 -31 119 -38 13 -334 14 -366 1z"/>
<path d="M703 2793 c-26 -5 -63 -48 -63 -73 0 -10 9 -29 21 -44 l20 -26 355 0
c341 0 355 1 374 20 38 38 22 100 -31 119 -31 11 -624 14 -676 4z"/>
<path d="M341 2364 c-27 -35 -26 -57 3 -91 l24 -28 479 -3 c263 -2 493 0 511
3 66 12 95 82 52 125 -19 19 -33 20 -534 20 l-515 0 -20 -26z"/>
<path d="M21 1964 c-36 -46 -22 -93 33 -114 39 -14 1282 -14 1325 1 53 19 69
81 31 119 -20 20 -33 20 -694 20 l-675 0 -20 -26z"/>
</g>
</svg>
